<?xml version="1.0" encoding="iso-8859-1"?>
<!-- Generator: Adobe Illustrator 17.1.0, SVG Export Plug-In . SVG Version: 6.00 Build 0)  -->
<!DOCTYPE svg PUBLIC "-//W3C//DTD SVG 1.1//EN" "http://www.w3.org/Graphics/SVG/1.1/DTD/svg11.dtd">
<svg version="1.1" id="Capa_1" xmlns="http://www.w3.org/2000/svg" xmlns:xlink="http://www.w3.org/1999/xlink" x="0px" y="0px"
	 viewBox="0 0 292 292" style="enable-background:new 0 0 292 292;" xml:space="preserve">
<path d="M272,0.5H20c-11.028,0-20,8.972-20,20v251c0,11.028,8.972,20,20,20h252c11.028,0,20-8.972,20-20v-251
	C292,9.472,283.028,0.5,272,0.5z M56,266.917c-17.351,0-31.417-14.066-31.417-31.417S38.649,204.083,56,204.083
	s31.417,14.066,31.417,31.417S73.351,266.917,56,266.917z M56,87.917c-17.351,0-31.417-14.066-31.417-31.417
	S38.649,25.083,56,25.083S87.417,39.149,87.417,56.5S73.351,87.917,56,87.917z M146,177.917c-17.351,0-31.417-14.066-31.417-31.417
	s14.066-31.417,31.417-31.417s31.417,14.066,31.417,31.417S163.351,177.917,146,177.917z M236,266.917
	c-17.351,0-31.417-14.066-31.417-31.417s14.066-31.417,31.417-31.417s31.417,14.066,31.417,31.417S253.351,266.917,236,266.917z
	 M236,87.917c-17.351,0-31.417-14.066-31.417-31.417S218.649,25.083,236,25.083s31.417,14.066,31.417,31.417
	S253.351,87.917,236,87.917z"/>
<g>
</g>
<g>
</g>
<g>
</g>
<g>
</g>
<g>
</g>
<g>
</g>
<g>
</g>
<g>
</g>
<g>
</g>
<g>
</g>
<g>
</g>
<g>
</g>
<g>
</g>
<g>
</g>
<g>
</g>
</svg>
